<?xml version="1.0" encoding="UTF-8" standalone="no"?>
<!DOCTYPE svg PUBLIC "-//W3C//DTD SVG 1.1//EN"
 "http://www.w3.org/Graphics/SVG/1.1/DTD/svg11.dtd">
<!-- Generated by graphviz version 14.0.0 (20250921.2048)
 -->
<!-- Title: aios Pages: 1 -->
<svg width="467pt" height="368pt"
 viewBox="0.00 0.00 467.00 368.00" xmlns="http://www.w3.org/2000/svg" xmlns:xlink="http://www.w3.org/1999/xlink">
<g id="graph0" class="graph" transform="scale(1 1) rotate(0) translate(4 364)">
<title>aios</title>
<polygon fill="white" stroke="none" points="-4,4 -4,-364 462.75,-364 462.75,4 -4,4"/>
<!-- HiveMind\luna_main.py -->
<g id="node1" class="node">
<title>HiveMind\luna_main.py</title>
<polygon fill="none" stroke="black" points="69.25,-198 0,-198 0,-162 69.25,-162 69.25,-198"/>
<text xml:space="preserve" text-anchor="start" x="8" y="-181.75" font-family="Times New Roman,serif" font-size="10.00">HiveMind</text>
<text xml:space="preserve" text-anchor="middle" x="34.62" y="-170.5" font-family="Times New Roman,serif" font-size="10.00">una_main.py</text>
</g>
<!-- AI_Core/Nova AI/AI/personality/embedder_cache/master_test_cache.json -->
<g id="node2" class="node">
<title>AI_Core/Nova AI/AI/personality/embedder_cache/master_test_cache.json</title>
<polygon fill="none" stroke="black" points="441.88,-360 122.12,-360 122.12,-324 441.88,-324 441.88,-360"/>
<text xml:space="preserve" text-anchor="middle" x="282" y="-338.12" font-family="Times New Roman,serif" font-size="10.00">AI_Core/Nova AI/AI/personality/embedder_cache/master_test_cache.json</text>
</g>
<!-- HiveMind\luna_main.py&#45;&gt;AI_Core/Nova AI/AI/personality/embedder_cache/master_test_cache.json -->
<g id="edge1" class="edge">
<title>HiveMind\luna_main.py&#45;&gt;AI_Core/Nova AI/AI/personality/embedder_cache/master_test_cache.json</title>
<path fill="none" stroke="gray" stroke-dasharray="5,2" d="M39.46,-198.34C46.72,-228.07 65.43,-286.36 105.25,-315 107.47,-316.6 109.75,-318.12 112.07,-319.56"/>
<polygon fill="gray" stroke="gray" points="110.16,-322.5 120.59,-324.34 113.58,-316.39 110.16,-322.5"/>
</g>
<!-- ../AI/personality/learning_data/luna_learning_history.json -->
<g id="node3" class="node">
<title>../AI/personality/learning_data/luna_learning_history.json</title>
<polygon fill="none" stroke="black" points="409.25,-306 154.75,-306 154.75,-270 409.25,-270 409.25,-306"/>
<text xml:space="preserve" text-anchor="middle" x="282" y="-284.12" font-family="Times New Roman,serif" font-size="10.00">../AI/personality/learning_data/luna_learning_history.json</text>
</g>
<!-- HiveMind\luna_main.py&#45;&gt;../AI/personality/learning_data/luna_learning_history.json -->
<g id="edge2" class="edge">
<title>HiveMind\luna_main.py&#45;&gt;../AI/personality/learning_data/luna_learning_history.json</title>
<path fill="none" stroke="gray" stroke-dasharray="5,2" d="M46.05,-198.5C57.82,-217.51 78.82,-246.33 105.25,-261 117.18,-267.62 130.22,-272.76 143.65,-276.73"/>
<polygon fill="gray" stroke="gray" points="142.45,-280.03 153.02,-279.27 144.28,-273.27 142.45,-280.03"/>
</g>
<!-- ../AI/personality/luna_personality_dna.json -->
<g id="node4" class="node">
<title>../AI/personality/luna_personality_dna.json</title>
<polygon fill="none" stroke="black" points="379.25,-252 184.75,-252 184.75,-216 379.25,-216 379.25,-252"/>
<text xml:space="preserve" text-anchor="middle" x="282" y="-230.12" font-family="Times New Roman,serif" font-size="10.00">../AI/personality/luna_personality_dna.json</text>
</g>
<!-- HiveMind\luna_main.py&#45;&gt;../AI/personality/luna_personality_dna.json -->
<g id="edge3" class="edge">
<title>HiveMind\luna_main.py&#45;&gt;../AI/personality/luna_personality_dna.json</title>
<path fill="none" stroke="gray" stroke-dasharray="5,2" d="M69.48,-194.83C80.7,-199.28 93.35,-203.82 105.25,-207 126.94,-212.8 150.48,-217.48 173.08,-221.21"/>
<polygon fill="gray" stroke="gray" points="172.52,-224.67 182.95,-222.78 173.62,-217.75 172.52,-224.67"/>
</g>
<!-- .corrupted_{int(time.time())}.json -->
<g id="node5" class="node">
<title>.corrupted_{int(time.time())}.json</title>
<polygon fill="none" stroke="black" points="358.25,-198 205.75,-198 205.75,-162 358.25,-162 358.25,-198"/>
<text xml:space="preserve" text-anchor="middle" x="282" y="-176.12" font-family="Times New Roman,serif" font-size="10.00">.corrupted_{int(time.time())}.json</text>
</g>
<!-- HiveMind\luna_main.py&#45;&gt;.corrupted_{int(time.time())}.json -->
<g id="edge4" class="edge">
<title>HiveMind\luna_main.py&#45;&gt;.corrupted_{int(time.time())}.json</title>
<path fill="none" stroke="gray" stroke-dasharray="5,2" d="M69.74,-180C101.78,-180 151.06,-180 193.97,-180"/>
<polygon fill="gray" stroke="gray" points="193.79,-183.5 203.79,-180 193.79,-176.5 193.79,-183.5"/>
</g>
<!-- )}.json -->
<g id="node6" class="node">
<title>)}.json</title>
<polygon fill="none" stroke="black" points="309,-144 255,-144 255,-108 309,-108 309,-144"/>
<text xml:space="preserve" text-anchor="middle" x="282" y="-122.12" font-family="Times New Roman,serif" font-size="10.00">)}.json</text>
</g>
<!-- HiveMind\luna_main.py&#45;&gt;)}.json -->
<g id="edge5" class="edge">
<title>HiveMind\luna_main.py&#45;&gt;)}.json</title>
<path fill="none" stroke="gray" stroke-dasharray="5,2" d="M69.48,-165.17C80.7,-160.72 93.35,-156.18 105.25,-153 152.01,-140.5 207.41,-133.19 243.33,-129.39"/>
<polygon fill="gray" stroke="gray" points="243.62,-132.88 253.22,-128.39 242.92,-125.92 243.62,-132.88"/>
</g>
<!-- ]}_{model_slug}_{avg_score:.2f}avg_{timestamp}.json -->
<g id="node7" class="node">
<title>]}_{model_slug}_{avg_score:.2f}avg_{timestamp}.json</title>
<polygon fill="none" stroke="black" points="404.75,-90 159.25,-90 159.25,-54 404.75,-54 404.75,-90"/>
<text xml:space="preserve" text-anchor="middle" x="282" y="-68.12" font-family="Times New Roman,serif" font-size="10.00">]}_{model_slug}_{avg_score:.2f}avg_{timestamp}.json</text>
</g>
<!-- HiveMind\luna_main.py&#45;&gt;]}_{model_slug}_{avg_score:.2f}avg_{timestamp}.json -->
<g id="edge6" class="edge">
<title>HiveMind\luna_main.py&#45;&gt;]}_{model_slug}_{avg_score:.2f}avg_{timestamp}.json</title>
<path fill="none" stroke="gray" stroke-dasharray="5,2" d="M46.05,-161.5C57.82,-142.49 78.82,-113.67 105.25,-99 118.5,-91.65 133.13,-86.12 148.12,-81.99"/>
<polygon fill="gray" stroke="gray" points="148.78,-85.44 157.62,-79.6 147.07,-78.65 148.78,-85.44"/>
</g>
<!-- luna_learning_{model_slug}_age{age_growth}_cycles{cycles}_{timestamp}.json -->
<g id="node8" class="node">
<title>luna_learning_{model_slug}_age{age_growth}_cycles{cycles}_{timestamp}.json</title>
<polygon fill="none" stroke="black" points="458.75,-36 105.25,-36 105.25,0 458.75,0 458.75,-36"/>
<text xml:space="preserve" text-anchor="middle" x="282" y="-14.12" font-family="Times New Roman,serif" font-size="10.00">luna_learning_{model_slug}_age{age_growth}_cycles{cycles}_{timestamp}.json</text>
</g>
<!-- HiveMind\luna_main.py&#45;&gt;luna_learning_{model_slug}_age{age_growth}_cycles{cycles}_{timestamp}.json -->
<g id="edge7" class="edge">
<title>HiveMind\luna_main.py&#45;&gt;luna_learning_{model_slug}_age{age_growth}_cycles{cycles}_{timestamp}.json</title>
<path fill="none" stroke="gray" stroke-dasharray="5,2" d="M39.46,-161.66C46.72,-131.93 65.43,-73.64 105.25,-45 106.62,-44.01 108.01,-43.06 109.42,-42.13"/>
<polygon fill="gray" stroke="gray" points="110.91,-45.32 117.72,-37.2 107.34,-39.3 110.91,-45.32"/>
</g>
</g>
</svg>
